# xmcd CD database file generated by Grip 3.2.0
# 
# Track frame offsets:
#       183
#       11893
#       22271
#       33994
#       50673
#       64741
#       82873
#       103877
#       119321
#       143657
#       166384
#       183219
#       197488
#       211426
#       228450
#       247239
#       256980
#       274980
#       289660
#       301312
#       319795
# 
# Disc length: 4500 seconds
# 
# Revision: 2
# Processed by: cddbd v1.5.1PL0 Copyright (c) Steve Scherf et al.
# Submitted via: Grip 3.2.0
# 
DISCID=35119215
DTITLE=Various Artist - Last Call's Happy Hour
DYEAR=2004
DGENRE=Other
TTITLE0=Alex Chilton - Bangkok (live)
TTITLE1=Calvin Russell - Baby I love you
TTITLE2=Gun Club - She's like heroin to me
TTITLE3=Elliot Murphy - O Catarina
TTITLE4=The Saints - Before you accuse me
TTITLE5=Chris Spedding - One step ahead of the Blues
TTITLE6=Screamin' Jay Hawkins - I put a Spell on You
TTITLE7=The Inmates - Grass is greener
TTITLE8=Love - Five String Serenade
TTITLE9=The Silencers - Painted Moon
TTITLE10=Dan Brodie - You make me wanna kill
TTITLE11=The Real Kids - Can't talk to that Girl
TTITLE12=Wille Loco Alexander - Gin
TTITLE13=Charlie Feathers - Jungle Fever
TTITLE14=Tav Falco and Panther Burns - Money talks
TTITLE15=The Box Tops - The Letter
TTITLE16=The Modern Lovers - Roadrunner
TTITLE17=Saylor White - Fire in the Sky
TTITLE18=Rich Minus - Laredo Rose
TTITLE19=The Windy City Strugglers - Girl in the Moon (God met Satan)
TTITLE20=Spencer Bohren - Hard killing Floor
EXTD=
EXTT0=
EXTT1=
EXTT2=
EXTT3=
EXTT4=
EXTT5=
EXTT6=
EXTT7=
EXTT8=
EXTT9=
EXTT10=
EXTT11=
EXTT12=
EXTT13=
EXTT14=
EXTT15=
EXTT16=
EXTT17=
EXTT18=
EXTT19=
EXTT20=
PLAYORDER=
